# Blender v3.2.1 OBJ File: ''
# www.blender.org
mtllib BoiTri.mtl
o Proxy
v -0.091630 1.154440 -0.091630
v -0.091630 1.154440 0.091630
v -0.042030 1.154440 0.042030
v 0.091630 1.154440 -0.091630
v 0.042030 1.154440 -0.042030
v 0.042030 1.154440 0.042030
v 0.042030 1.154440 0.042030
v 0.042030 1.154440 -0.042030
v 0.042030 1.216520 -0.042030
v -0.042030 1.154440 0.042030
v -0.042030 1.216520 0.042030
v -0.042030 1.216520 -0.042030
v 0.130918 1.478360 -0.130918
v 0.130918 1.478360 0.130918
v 0.130918 1.216520 0.130918
v -0.130918 1.478360 -0.130918
v -0.130918 1.216520 -0.130918
v -0.130918 1.216520 0.130918
v 0.042030 1.216520 -0.042030
v 0.130918 1.216520 -0.130918
v 0.130918 1.216520 0.130918
v -0.042030 1.216520 0.042030
v -0.130918 1.216520 0.130918
v -0.130918 1.216520 -0.130918
v 0.091630 1.154440 -0.091630
v 0.091794 1.145840 -0.083192
v 0.093499 1.056340 -0.084897
v 0.091630 1.154440 -0.091630
v 0.091630 1.154440 0.091630
v 0.091794 1.145840 0.026193
v -0.091630 1.154440 -0.091630
v -0.091794 1.145840 -0.083192
v -0.091794 1.145840 0.026193
v -0.091630 1.154440 0.091630
v -0.091794 1.145840 0.026193
v -0.093499 1.056340 0.027898
v 0.042030 1.154440 0.042030
v 0.000000 1.154440 0.042030
v 0.000000 1.154440 0.091630
v -0.042030 1.154440 0.042030
v -0.091630 1.154440 0.091630
v 0.000000 1.154440 -0.091630
v 0.000000 1.154440 -0.042030
v 0.042030 1.154440 -0.042030
v -0.091630 1.154440 -0.091630
v -0.042030 1.154440 -0.042030
v 0.000000 1.216520 0.042030
v 0.000000 1.154440 0.042030
v 0.042030 1.154440 0.042030
v -0.042030 1.216520 0.042030
v -0.042030 1.154440 0.042030
v 0.000000 1.154440 -0.042030
v 0.000000 1.216520 -0.042030
v 0.042030 1.216520 -0.042030
v -0.042030 1.154440 -0.042030
v -0.042030 1.216520 -0.042030
v 0.000000 1.478360 0.130918
v 0.000000 1.216520 0.130918
v 0.130918 1.216520 0.130918
v -0.130918 1.478360 0.130918
v -0.130918 1.216520 0.130918
v 0.000000 1.216520 -0.130918
v 0.000000 1.478360 -0.130918
v 0.130918 1.478360 -0.130918
v -0.130918 1.216520 -0.130918
v -0.130918 1.478360 -0.130918
v 0.000000 1.478360 -0.130918
v 0.000000 1.478360 0.130918
v 0.130918 1.478360 0.130918
v -0.130918 1.478360 -0.130918
v -0.130918 1.478360 0.130918
v 0.000000 1.216520 0.130918
v 0.000000 1.216520 0.042030
v 0.042030 1.216520 0.042030
v -0.130918 1.216520 0.130918
v -0.042030 1.216520 0.042030
v 0.042030 1.216520 -0.042030
v 0.000000 1.216520 -0.042030
v 0.000000 1.216520 -0.130918
v -0.042030 1.216520 -0.042030
v -0.130918 1.216520 -0.130918
v 0.000000 1.047740 -0.093663
v 0.000000 1.154440 -0.091630
v 0.091630 1.154440 -0.091630
v -0.093663 1.047740 -0.093663
v -0.091630 1.154440 -0.091630
v 0.548448 0.802989 0.192475
v 0.573126 0.788794 0.148635
v 0.589461 0.808306 0.152434
v -0.589461 0.808306 0.152434
v -0.573126 0.788794 0.148635
v -0.548448 0.802989 0.192475
v 0.120743 0.028440 0.041784
v 0.038887 0.028440 0.042691
v 0.065682 0.028440 -0.084513
v -0.120743 0.028440 0.041784
v -0.100650 0.028440 -0.083131
v -0.065682 0.028440 -0.084513
v -0.038887 0.028440 0.042691
v -0.058385 0.028440 0.177900
v 0.132242 0.028440 0.177900
v 0.058385 0.028440 0.177900
v -0.119991 0.105385 0.042110
v -0.131498 0.070797 0.177900
v -0.057642 0.070321 0.177900
v 0.119991 0.105385 0.042110
v 0.038135 0.104773 0.043016
v 0.057642 0.070322 0.177900
v 0.058385 0.028440 0.177900
v 0.132242 0.028440 0.177900
v 0.131498 0.070797 0.177900
v -0.131498 0.070797 0.177900
v -0.132242 0.028440 0.177900
v -0.058385 0.028440 0.177900
v -0.042030 1.154440 -0.042030
v -0.091630 1.154440 -0.091630
v -0.042030 1.154440 0.042030
v 0.091630 1.154440 0.091630
v 0.091630 1.154440 -0.091630
v 0.042030 1.154440 0.042030
v 0.042030 1.216520 0.042030
v -0.042030 1.154440 -0.042030
v 0.130918 1.216520 -0.130918
v -0.130918 1.478360 0.130918
v 0.042030 1.216520 0.042030
v 0.042030 1.216520 -0.042030
v 0.130918 1.216520 0.130918
v -0.042030 1.216520 -0.042030
v -0.042030 1.216520 0.042030
v -0.130918 1.216520 -0.130918
v 0.091794 1.145840 -0.083192
v 0.091630 1.154440 -0.091630
v 0.091794 1.145840 0.026193
v 0.091794 1.145840 0.026193
v 0.091630 1.154440 0.091630
v 0.093499 1.056340 0.027898
v -0.091630 1.154440 0.091630
v -0.091794 1.145840 -0.083192
v -0.091630 1.154440 -0.091630
v -0.093499 1.056340 -0.084897
v 0.091630 1.154440 0.091630
v 0.091630 1.154440 -0.091630
v 0.042030 1.216520 0.042030
v 0.042030 1.154440 -0.042030
v 0.130918 1.478360 0.130918
v 0.000000 1.478360 0.130918
v 0.130918 1.216520 0.130918
v -0.130918 1.478360 0.130918
v 0.000000 1.216520 0.130918
v 0.130918 1.216520 -0.130918
v 0.130918 1.478360 -0.130918
v 0.130918 1.216520 0.130918
v 0.130918 1.216520 -0.130918
v 0.093663 1.047740 -0.093663
v 0.565513 0.822082 0.194977
v 0.548448 0.802989 0.192475
v 0.589461 0.808306 0.152434
v -0.565513 0.822082 0.194977
v -0.589461 0.808306 0.152434
v -0.548448 0.802989 0.192475
v 0.100650 0.028440 -0.083131
v -0.132242 0.028440 0.177900
v -0.038135 0.104773 0.043016
v -0.119991 0.105385 0.042110
v -0.057642 0.070321 0.177900
v 0.131498 0.070797 0.177900
v 0.119991 0.105385 0.042110
v 0.057642 0.070322 0.177900
v 0.057642 0.070322 0.177900
v 0.058385 0.028440 0.177900
v 0.131498 0.070797 0.177900
v -0.057642 0.070321 0.177900
v -0.131498 0.070797 0.177900
v -0.058385 0.028440 0.177900
v 0.121548 0.669440 0.100870
v 0.121548 0.669440 -0.100870
v 0.093663 1.047740 -0.093663
v -0.093663 1.047740 -0.093663
v -0.121548 0.669440 -0.100870
v -0.121548 0.669440 0.100870
v 0.093663 1.047740 0.093663
v -0.093663 1.047740 0.093663
v 0.091794 1.145840 -0.083192
v 0.091794 1.145840 0.026193
v 0.323697 1.030070 0.017715
v -0.091794 1.145840 -0.083192
v -0.323697 1.030070 -0.074715
v -0.323697 1.030070 0.017715
v 0.093499 1.056340 -0.084897
v 0.288858 0.959914 -0.076156
v 0.288858 0.959914 0.019156
v 0.446654 0.881606 0.039629
v 0.415832 0.899337 0.094384
v -0.093499 1.056340 -0.084897
v -0.093499 1.056340 0.027898
v -0.288858 0.959914 0.019156
v 0.323697 1.030070 -0.074715
v 0.288858 0.959914 -0.076156
v 0.093499 1.056340 -0.084897
v 0.475676 0.933137 0.040457
v 0.446654 0.881606 0.039629
v -0.446654 0.881606 0.039629
v -0.288858 0.959914 -0.076156
v 0.093499 1.056340 0.027898
v 0.288858 0.959914 0.019156
v 0.323697 1.030070 0.017715
v 0.445785 0.950332 0.093557
v -0.323697 1.030070 0.017715
v -0.288858 0.959914 0.019156
v -0.093499 1.056340 0.027898
v -0.445785 0.950332 0.093557
v -0.415832 0.899337 0.094385
v -0.093499 1.056340 -0.084897
v -0.288858 0.959914 -0.076156
v -0.323697 1.030070 -0.074715
v -0.475676 0.933137 0.040457
v 0.475676 0.933137 0.040457
v 0.323697 1.030070 -0.074715
v -0.475676 0.933137 0.040457
v -0.445785 0.950332 0.093557
v 0.000000 0.669440 -0.100870
v 0.000000 1.047740 -0.093663
v 0.093663 1.047740 -0.093663
v -0.121548 0.669440 -0.100870
v -0.093663 1.047740 -0.093663
v 0.091630 1.154440 0.091630
v 0.000000 1.154440 0.091630
v 0.000000 1.047740 0.093663
v -0.091630 1.154440 0.091630
v -0.093663 1.047740 0.093663
v 0.093663 1.047740 0.093663
v 0.000000 0.669440 0.114870
v -0.121548 0.669440 0.100870
v 0.119926 0.632856 0.091729
v 0.119926 0.632856 -0.091224
v 0.121548 0.669440 0.100870
v 0.020421 0.632856 0.103483
v 0.000000 0.669440 -0.100870
v 0.020421 0.632856 -0.091224
v 0.020421 0.632856 0.103483
v 0.121548 0.669440 -0.100870
v 0.119926 0.632856 -0.091224
v 0.020421 0.632856 -0.091224
v 0.000000 0.669440 -0.100870
v 0.000000 0.669440 0.114870
v -0.020421 0.632856 0.103483
v -0.119926 0.632856 0.091729
v -0.020421 0.632856 0.103483
v -0.121548 0.669440 -0.100870
v -0.119926 0.632856 -0.091224
v -0.121548 0.669440 -0.100870
v 0.000000 0.669440 -0.100870
v -0.020421 0.632856 -0.091224
v 0.122835 0.382137 0.103808
v 0.121001 0.382630 0.007941
v 0.119741 0.131383 0.042219
v 0.116011 0.131886 -0.044363
v 0.035165 0.382137 0.112727
v 0.122835 0.382137 0.103808
v 0.119926 0.632856 0.091729
v 0.037884 0.130771 0.043125
v 0.119741 0.131383 0.042219
v 0.033331 0.382630 0.007941
v 0.035165 0.382137 0.112727
v 0.039406 0.130967 -0.041711
v 0.037884 0.130771 0.043125
v 0.121001 0.382630 0.007941
v 0.033331 0.382630 0.007941
v 0.116011 0.131886 -0.044363
v 0.039406 0.130967 -0.041711
v -0.033331 0.382630 0.007941
v -0.035165 0.382137 0.112727
v -0.037884 0.130771 0.043125
v -0.020421 0.632856 -0.091224
v -0.037884 0.130771 0.043125
v -0.035165 0.382137 0.112727
v -0.122835 0.382137 0.103808
v -0.119741 0.131383 0.042219
v -0.122835 0.382137 0.103808
v -0.121001 0.382630 0.007941
v -0.119926 0.632856 0.091729
v -0.116011 0.131886 -0.044363
v -0.121001 0.382630 0.007941
v -0.033331 0.382630 0.007941
v -0.119926 0.632856 -0.091224
v 0.445785 0.950332 0.093557
v 0.466209 0.938125 0.134038
v 0.415832 0.899337 0.094384
v 0.436271 0.887901 0.135438
v 0.466209 0.938125 0.134038
v 0.487591 0.858380 0.044269
v 0.436271 0.887901 0.135438
v 0.515953 0.909511 0.045670
v -0.515953 0.909511 0.045670
v -0.466209 0.938125 0.134038
v -0.446654 0.881606 0.039629
v -0.487591 0.858380 0.044270
v -0.515953 0.909511 0.045670
v -0.415832 0.899337 0.094385
v -0.436271 0.887901 0.135438
v -0.466209 0.938125 0.134038
v 0.565513 0.822082 0.194977
v 0.589461 0.808306 0.152434
v 0.548448 0.802989 0.192475
v 0.565513 0.822082 0.194977
v 0.573126 0.788794 0.148635
v 0.487591 0.858380 0.044269
v 0.589461 0.808306 0.152434
v -0.589461 0.808306 0.152434
v -0.573126 0.788794 0.148635
v -0.589461 0.808306 0.152434
v -0.548448 0.802989 0.192475
v -0.573126 0.788794 0.148635
v -0.436271 0.887901 0.135438
v -0.565513 0.822082 0.194977
v 0.119991 0.105385 0.042110
v 0.038135 0.104773 0.043016
v 0.039656 0.104981 -0.050674
v 0.038135 0.104773 0.043016
v 0.116262 0.105900 -0.053326
v 0.039656 0.104981 -0.050674
v -0.039406 0.130967 -0.041711
v -0.038135 0.104773 0.043016
v -0.119741 0.131383 0.042219
v -0.119991 0.105385 0.042110
v -0.038135 0.104773 0.043016
v -0.116011 0.131886 -0.044363
v -0.116262 0.105900 -0.053326
v -0.119991 0.105385 0.042110
v -0.039406 0.130967 -0.041711
v -0.039656 0.104981 -0.050674
v 0.116262 0.105900 -0.053326
v 0.120743 0.028440 0.041784
v 0.065682 0.028440 -0.084513
v 0.038887 0.028440 0.042691
v 0.100650 0.028440 -0.083131
v 0.065682 0.028440 -0.084513
v -0.039656 0.104981 -0.050674
v -0.038887 0.028440 0.042691
v -0.100650 0.028440 -0.083131
v -0.120743 0.028440 0.041784
v -0.116262 0.105900 -0.053326
v -0.065682 0.028440 -0.084513
v -0.132242 0.028440 0.177900
v -0.131498 0.070797 0.177900
v 0.131498 0.070797 0.177900
v 0.132242 0.028440 0.177900
v -0.057642 0.070321 0.177900
v 0.058385 0.028440 0.177900
v 0.057642 0.070322 0.177900
v -0.091794 1.145840 0.026193
v 0.093499 1.056340 0.027898
v 0.091794 1.145840 -0.083192
v 0.091794 1.145840 0.026193
v -0.091794 1.145840 0.026193
v -0.091794 1.145840 -0.083192
v 0.121548 0.669440 -0.100870
v 0.121548 0.669440 -0.100870
v 0.000000 0.669440 0.114870
v 0.515953 0.909511 0.045670
v -0.487591 0.858380 0.044270
v 0.548448 0.802989 0.192475
v 0.573126 0.788794 0.148635
v -0.565513 0.822082 0.194977
v -0.548448 0.802989 0.192475
v 0.119991 0.105385 0.042110
v 0.100650 0.028440 -0.083131
v -0.065682 0.028440 -0.084513
v -0.100650 0.028440 -0.083131
v -0.058385 0.028440 0.177900
vn 0.0000 1.0000 0.0000
vn 1.0000 -0.0000 0.0000
vn -1.0000 0.0000 0.0000
vn 0.0000 -1.0000 0.0000
vn 0.9998 0.0190 -0.0000
vn 0.9998 0.0191 0.0000
vn -0.9998 0.0191 0.0000
vn -0.9998 0.0190 0.0000
vn 0.0000 -0.0000 1.0000
vn 0.0000 0.0000 -1.0000
vn 0.0000 0.0191 -0.9998
vn 0.5962 -0.6024 0.5307
vn -0.5962 -0.6024 0.5307
vn 0.0062 0.9689 0.2473
vn -0.0045 0.9687 0.2481
vn 0.0045 0.9687 0.2481
vn -0.0062 0.9689 0.2473
vn 0.9998 0.0193 -0.0000
vn 0.9998 0.0196 -0.0000
vn 0.9989 0.0466 0.0000
vn -0.9989 0.0466 0.0000
vn -0.9998 0.0196 0.0000
vn -0.9998 0.0193 -0.0000
vn 0.4467 0.8947 0.0000
vn 0.4981 0.8671 0.0027
vn -0.4467 0.8947 0.0000
vn -0.4823 0.8760 0.0000
vn -0.4981 0.8671 0.0027
vn -0.4426 -0.8967 0.0000
vn -0.4433 -0.8964 0.0000
vn -0.4441 -0.8960 0.0038
vn -0.4737 -0.8806 0.0134
vn -0.4736 -0.8806 0.0186
vn 0.4426 -0.8967 0.0000
vn 0.4441 -0.8960 0.0038
vn 0.2720 -0.1128 -0.9557
vn 0.2762 -0.1208 -0.9535
vn 0.0460 0.0163 -0.9988
vn 0.3066 -0.1533 -0.9394
vn 0.3039 -0.1525 -0.9404
vn 0.4737 -0.8806 0.0134
vn 0.4433 -0.8964 0.0000
vn 0.0460 0.0163 0.9988
vn -0.1867 0.1165 0.9755
vn -0.1786 0.1115 0.9776
vn -0.5904 0.3535 0.7256
vn 0.1786 0.1115 0.9776
vn 0.1867 0.1165 0.9755
vn -0.0460 0.0163 0.9988
vn 0.5904 0.3535 0.7256
vn 0.5900 0.3618 0.7218
vn -0.0460 0.0163 -0.9988
vn -0.2762 -0.1208 -0.9535
vn -0.2720 -0.1128 -0.9557
vn -0.3066 -0.1533 -0.9394
vn 0.5186 0.8549 0.0115
vn 0.4823 0.8760 0.0000
vn -0.5186 0.8549 0.0115
vn -0.5187 0.8548 0.0152
vn 0.0000 -0.0932 -0.9956
vn 0.0000 0.0190 -0.9998
vn 0.0000 -0.1205 -0.9927
vn 0.0000 0.0190 0.9998
vn 0.0000 0.0375 0.9993
vn -0.0114 0.0352 0.9993
vn 0.0114 0.0352 0.9993
vn -0.0000 -0.0778 0.9970
vn -0.1148 -0.1118 0.9871
vn 0.9998 -0.0207 -0.0021
vn 0.9997 -0.0251 0.0000
vn 0.1148 -0.1118 0.9871
vn 0.1151 -0.1218 0.9859
vn -0.8732 -0.4874 0.0000
vn -0.9469 -0.3214 0.0000
vn -0.9563 -0.2922 0.0021
vn 0.0000 -0.3116 -0.9502
vn 0.0000 -0.3036 -0.9528
vn 0.8732 -0.4874 0.0000
vn 0.9563 -0.2922 0.0021
vn -0.1150 -0.1019 0.9881
vn -0.1151 -0.1218 0.9859
vn -0.9998 0.0195 0.0000
vn -0.9997 -0.0251 0.0000
vn 0.9998 0.0021 -0.0191
vn 0.9998 0.0005 -0.0177
vn 0.9992 -0.0009 -0.0404
vn 0.9991 0.0076 -0.0410
vn 0.1026 -0.1052 0.9891
vn 0.0922 -0.1076 0.9899
vn 0.1150 -0.1019 0.9881
vn 0.0209 -0.1254 0.9919
vn 0.0119 -0.1228 0.9924
vn -0.9993 -0.0371 0.0107
vn -0.9991 -0.0385 0.0173
vn -0.9998 -0.0115 -0.0171
vn -0.9998 -0.0149 -0.0137
vn 0.0000 -0.0872 -0.9962
vn -0.0035 -0.0935 -0.9956
vn -0.0327 0.2606 -0.9649
vn -0.0365 0.2591 -0.9652
vn 0.9993 -0.0371 0.0107
vn 0.9991 -0.0385 0.0173
vn 0.9998 -0.0149 -0.0137
vn 0.9469 -0.3214 0.0000
vn -0.0209 -0.1254 0.9919
vn -0.1026 -0.1052 0.9891
vn -0.0922 -0.1076 0.9899
vn -0.9992 -0.0009 -0.0404
vn -0.9998 0.0021 -0.0191
vn -0.9998 0.0005 -0.0177
vn -0.9998 -0.0207 -0.0021
vn 0.0327 0.2606 -0.9649
vn 0.0035 -0.0935 -0.9956
vn 0.5187 0.8548 0.0152
vn 0.6229 0.7760 0.0994
vn -0.5900 0.3618 0.7218
vn -0.5513 0.3473 0.7586
vn -0.5833 0.3638 0.7263
vn -0.5437 -0.8386 -0.0345
vn 0.3447 -0.1700 -0.9232
vn -0.6229 0.7760 0.0994
vn -0.3039 -0.1526 -0.9404
vn -0.3839 -0.1907 -0.9035
vn -0.3447 -0.1700 -0.9232
vn 0.4736 -0.8806 0.0186
vn 0.5437 -0.8386 -0.0345
vn 0.5833 0.3638 0.7263
vn 0.7022 0.6910 0.1715
vn -0.3353 0.1784 0.9251
vn -0.3312 0.1863 0.9250
vn -0.5812 -0.8112 -0.0645
vn 0.3839 -0.1907 -0.9035
vn 0.5969 -0.3476 -0.7231
vn -0.7022 0.6910 0.1715
vn -0.5927 -0.3555 -0.7228
vn -0.5969 -0.3476 -0.7231
vn 0.5812 -0.8112 -0.0645
vn 0.5513 0.3473 0.7586
vn 0.3312 0.1863 0.9250
vn 0.9985 0.0108 -0.0529
vn 0.0111 -0.0041 0.9999
vn -0.9907 -0.1000 -0.0919
vn -0.9995 -0.0095 0.0299
vn -0.0276 0.3529 -0.9353
vn -0.0366 0.3561 -0.9337
vn 0.9998 -0.0115 -0.0171
vn 0.9995 -0.0095 0.0299
vn -0.0119 -0.1228 0.9924
vn -0.0111 -0.0041 0.9999
vn -0.9991 0.0076 -0.0410
vn -0.9953 -0.0434 -0.0864
vn -0.9985 0.0108 -0.0529
vn 0.0365 0.2591 -0.9652
vn 0.0366 0.3561 -0.9337
vn 0.9953 -0.0434 -0.0864
vn 0.9960 -0.0215 -0.0867
vn -0.9512 -0.2348 -0.2004
vn -0.9979 -0.0621 0.0206
vn 0.0370 0.3524 -0.9351
vn 0.0035 0.3715 -0.9284
vn 0.9907 -0.1000 -0.0919
vn 0.9979 -0.0621 0.0206
vn -0.9781 -0.1366 -0.1573
vn -0.9960 -0.0215 -0.0867
vn 0.0276 0.3529 -0.9353
vn -0.0035 0.3715 -0.9284
vn -0.9963 0.0175 -0.0842
vn -0.9964 0.0153 -0.0835
vn 0.9964 0.0153 -0.0835
vn 0.9963 0.0175 -0.0842
vn 0.9897 -0.0154 0.1421
vn -0.9896 -0.0176 0.1427
vn -0.9897 -0.0154 0.1421
vn 0.0464 0.0199 -0.9987
vn 0.0465 0.0199 0.9987
vn -0.0465 0.0199 0.9987
vn -0.0464 0.0199 -0.9987
vn 0.9998 0.0195 0.0000
vn 0.5927 -0.3555 -0.7228
vn 0.3353 0.1784 0.9251
vn 0.9781 -0.1366 -0.1573
vn 0.9512 -0.2348 -0.2004
vn -0.0370 0.3524 -0.9351
vn 0.9896 -0.0176 0.1427
usemtl Default-effect
s off
f 1//1 2//1 3//1
f 4//1 5//1 6//1
f 7//2 8//2 9//2
f 10//3 11//3 12//3
f 13//2 14//2 15//2
f 16//3 17//3 18//3
f 19//4 20//4 21//4
f 22//4 23//4 24//4
f 25//5 26//5 27//5
f 28//6 29//6 30//6
f 31//7 32//7 33//7
f 34//8 35//8 36//8
f 37//1 38//1 39//1
f 40//1 41//1 39//1
f 42//1 43//1 44//1
f 42//1 45//1 46//1
f 47//9 48//9 49//9
f 50//9 51//9 48//9
f 52//10 53//10 54//10
f 55//10 56//10 53//10
f 57//9 58//9 59//9
f 60//9 61//9 58//9
f 62//10 63//10 64//10
f 65//10 66//10 63//10
f 67//1 68//1 69//1
f 70//1 71//1 68//1
f 72//4 73//4 74//4
f 72//4 75//4 76//4
f 77//4 78//4 79//4
f 80//4 81//4 79//4
f 82//11 83//11 84//11
f 82//11 85//11 86//11
f 87//12 88//12 89//12
f 90//13 91//13 92//13
f 93//4 94//4 95//4
f 96//4 97//4 98//4
f 96//4 99//4 100//4
f 93//4 101//4 102//4
f 103//14 104//14 105//14
f 106//15 107//15 108//15
f 109//9 110//9 111//9
f 112//9 113//9 114//9
f 115//1 116//1 117//1
f 118//1 119//1 120//1
f 121//2 7//2 9//2
f 122//3 10//3 12//3
f 123//2 13//2 15//2
f 124//3 16//3 18//3
f 125//4 126//4 127//4
f 128//4 129//4 130//4
f 131//6 132//6 133//6
f 134//5 135//5 136//5
f 137//7 31//7 33//7
f 138//8 139//8 140//8
f 141//1 37//1 39//1
f 38//1 40//1 39//1
f 142//1 42//1 44//1
f 43//1 42//1 46//1
f 143//9 47//9 49//9
f 47//9 50//9 48//9
f 144//10 52//10 54//10
f 52//10 55//10 53//10
f 145//9 146//9 147//9
f 146//9 148//9 149//9
f 150//10 62//10 64//10
f 62//10 65//10 63//10
f 151//1 67//1 69//1
f 67//1 70//1 68//1
f 152//4 72//4 74//4
f 73//4 72//4 76//4
f 153//4 77//4 79//4
f 78//4 80//4 79//4
f 154//11 82//11 84//11
f 83//11 82//11 86//11
f 155//12 156//12 157//12
f 158//13 159//13 160//13
f 161//4 93//4 95//4
f 99//4 96//4 98//4
f 162//4 96//4 100//4
f 94//4 93//4 102//4
f 163//16 164//16 165//16
f 166//17 167//17 168//17
f 169//9 170//9 171//9
f 172//9 173//9 174//9
s 1
f 175//18 176//19 177//20
f 178//21 179//22 180//23
f 135//6 181//20 136//6
f 177//20 27//6 136//6
f 139//8 178//21 140//7
f 178//21 182//21 36//7
f 183//24 184//24 185//25
f 186//26 187//27 188//28
f 189//29 190//30 191//31
f 192//32 193//33 191//31
f 194//34 195//34 196//35
f 197//36 198//37 199//38
f 200//39 201//40 198//37
f 202//41 203//42 196//35
f 204//43 205//44 206//45
f 207//46 206//45 205//44
f 208//47 209//48 210//49
f 211//50 212//51 209//48
f 213//52 214//53 215//54
f 216//55 215//54 214//53
f 217//56 218//57 185//25
f 219//58 220//59 188//28
f 221//60 222//61 223//61
f 221//60 224//62 225//61
f 226//63 227//63 228//64
f 229//63 230//65 228//64
f 231//66 228//64 232//67
f 230//65 233//68 232//67
f 175//18 234//69 235//70
f 236//71 232//67 237//72
f 238//73 239//74 240//75
f 241//62 242//76 243//77
f 244//78 245//78 246//79
f 233//68 247//80 248//81
f 180//23 249//82 250//83
f 251//62 252//60 253//77
f 234//69 254//84 255//85
f 256//86 257//87 255//85
f 258//88 259//89 260//90
f 261//91 262//92 259//89
f 263//93 264//94 240//75
f 263//93 265//95 266//96
f 242//76 267//97 268//98
f 269//99 270//100 268//98
f 271//101 272//102 273//103
f 271//101 274//104 246//79
f 275//105 276//106 277//107
f 276//106 248//81 247//80
f 278//108 279//109 280//110
f 281//111 250//83 280//110
f 282//112 283//97 284//113
f 285//76 253//77 284//113
f 217//56 286//114 287//115
f 288//116 289//117 290//118
f 192//32 291//119 292//119
f 201//40 200//39 293//120
f 219//58 294//121 295//121
f 296//122 297//123 298//124
f 202//41 299//125 300//126
f 212//51 211//50 301//127
f 287//115 302//128 303//128
f 289//117 304//129 305//130
f 292//119 291//119 306//131
f 307//132 293//120 308//133
f 295//121 294//121 309//134
f 297//123 310//135 311//136
f 300//126 312//137 313//137
f 314//138 301//127 315//139
f 257//87 256//86 316//140
f 262//92 261//91 317//141
f 265//95 318//142 319//143
f 269//99 320//144 321//145
f 322//146 273//103 323//147
f 324//148 325//149 326//149
f 327//150 328//151 329//152
f 282//112 330//153 331//154
f 332//155 316//140 333//156
f 318//142 334//157 335//158
f 320//144 336//159 337//160
f 338//161 323//147 339//162
f 328//151 340//163 341//164
f 342//165 331//154 343//166
f 341//164 344//167 345//168
f 346//169 347//170 333//156
f 339//162 323//147 348//171
f 335//158 349//172 350//173
f 181//20 175//18 177//20
f 182//21 178//21 180//23
f 177//20 25//5 27//6
f 181//20 177//20 136//6
f 140//7 178//21 36//7
f 182//21 34//7 36//7
f 218//57 183//24 185//25
f 351//26 186//26 188//28
f 352//29 189//29 191//31
f 190//30 192//32 191//31
f 203//42 194//34 196//35
f 353//174 197//36 199//38
f 197//36 200//39 198//37
f 299//125 202//41 196//35
f 354//175 204//43 206//45
f 288//116 207//46 205//44
f 355//176 208//47 210//49
f 208//47 211//50 209//48
f 356//177 213//52 215//54
f 296//122 216//55 214//53
f 286//114 217//56 185//25
f 187//27 219//58 188//28
f 357//62 221//60 223//61
f 222//61 221//60 225//61
f 231//66 226//63 228//64
f 227//63 229//63 228//64
f 236//71 231//66 232//67
f 228//64 230//65 232//67
f 358//178 175//18 235//70
f 260//90 236//71 237//72
f 359//73 238//73 240//75
f 252//60 241//62 243//77
f 274//104 244//78 246//79
f 232//67 233//68 248//81
f 281//111 180//23 250//83
f 285//76 251//62 253//77
f 235//70 234//69 255//85
f 254//84 256//86 255//85
f 237//72 258//88 260//90
f 258//88 261//91 259//89
f 239//74 263//93 240//75
f 264//94 263//93 266//96
f 243//77 242//76 268//98
f 267//97 269//99 268//98
f 322//146 271//101 273//103
f 272//102 271//101 246//79
f 324//148 275//105 277//107
f 277//107 276//106 247//80
f 327//150 278//108 280//110
f 279//109 281//111 280//110
f 330//153 282//112 284//113
f 283//97 285//76 284//113
f 360//115 217//56 287//115
f 207//46 288//116 290//118
f 193//33 192//32 292//119
f 307//132 201//40 293//120
f 220//59 219//58 295//121
f 216//55 296//122 298//124
f 361//126 202//41 300//126
f 314//138 212//51 301//127
f 360//115 287//115 303//128
f 290//118 289//117 305//130
f 362//131 292//119 306//131
f 363//179 307//132 308//133
f 364//134 295//121 309//134
f 298//124 297//123 311//136
f 361//126 300//126 313//137
f 365//180 314//138 315//139
f 332//155 257//87 316//140
f 366//141 262//92 317//141
f 266//96 265//95 319//143
f 270//100 269//99 321//145
f 338//161 322//146 323//147
f 275//105 324//148 326//149
f 278//108 327//150 329//152
f 342//165 282//112 331//154
f 367//181 332//155 333//156
f 319//143 318//142 335//158
f 321//145 320//144 337//160
f 368//182 338//161 339//162
f 329//152 328//151 341//164
f 369//183 342//165 343//166
f 329//152 341//164 345//168
f 316//140 346//169 333//156
f 370//184 339//162 348//171
f 319//143 335//158 350//173
